<?xml version="1.0" encoding="UTF-8" standalone="no"?>
<!-- Created with Inkscape (http://www.inkscape.org/) -->

<svg
   version="1.1"
   id="svg2"
   xml:space="preserve"
   width="722.16534"
   height="250.81467"
   viewBox="0 0 722.16534 250.81467"
   sodipodi:docname="graphe_liaison.svg"
   inkscape:version="1.1 (c4e8f9e, 2021-05-24)"
   xmlns:inkscape="http://www.inkscape.org/namespaces/inkscape"
   xmlns:sodipodi="http://sodipodi.sourceforge.net/DTD/sodipodi-0.dtd"
   xmlns="http://www.w3.org/2000/svg"
   xmlns:svg="http://www.w3.org/2000/svg"><defs
     id="defs6"><clipPath
       clipPathUnits="userSpaceOnUse"
       id="clipPath16"><path
         d="M 0,188.111 H 541.624 V 0 H 0 Z"
         id="path14" /></clipPath><clipPath
       clipPathUnits="userSpaceOnUse"
       id="clipPath24"><path
         d="M 183.281,178.023 H 541.624 V 0 H 183.281 Z"
         id="path22" /></clipPath><clipPath
       clipPathUnits="userSpaceOnUse"
       id="clipPath140"><path
         d="M 0,188.111 H 541.624 V 0 H 0 Z"
         id="path138" /></clipPath><clipPath
       clipPathUnits="userSpaceOnUse"
       id="clipPath156"><path
         d="M 0,188.111 H 541.624 V 0 H 0 Z"
         id="path154" /></clipPath><clipPath
       clipPathUnits="userSpaceOnUse"
       id="clipPath172"><path
         d="M 0,188.111 H 541.624 V 0 H 0 Z"
         id="path170" /></clipPath><clipPath
       clipPathUnits="userSpaceOnUse"
       id="clipPath180"><path
         d="M 371.1,164.023 H 530.116 V 16.0229 H 371.1 Z"
         id="path178" /></clipPath><clipPath
       clipPathUnits="userSpaceOnUse"
       id="clipPath206"><path
         d="m 146.978,103.645 h 69.716 v 27.757 h -69.716 z"
         id="path204" /></clipPath><clipPath
       clipPathUnits="userSpaceOnUse"
       id="clipPath246"><path
         d="m 181.836,117.523 v 0 0 z"
         id="path244" /></clipPath><clipPath
       clipPathUnits="userSpaceOnUse"
       id="clipPath258"><path
         d="m 326.16,103.645 h 74.88 v 27.757 h -74.88 z"
         id="path256" /></clipPath><clipPath
       clipPathUnits="userSpaceOnUse"
       id="clipPath298"><path
         d="m 363.277,117.523 v 0 0 z"
         id="path296" /></clipPath></defs><sodipodi:namedview
     id="namedview4"
     pagecolor="#ffffff"
     bordercolor="#666666"
     borderopacity="1.0"
     inkscape:pageshadow="2"
     inkscape:pageopacity="0.0"
     inkscape:pagecheckerboard="0"
     showgrid="false"
     inkscape:zoom="1.6325901"
     inkscape:cx="361.08267"
     inkscape:cy="125.56734"
     inkscape:window-width="1348"
     inkscape:window-height="798"
     inkscape:window-x="0"
     inkscape:window-y="116"
     inkscape:window-maximized="0"
     inkscape:current-layer="g8" /><g
     id="g8"
     inkscape:groupmode="layer"
     inkscape:label="graphe_liaison"
     transform="matrix(1.3333333,0,0,-1.3333333,0,250.81467)"><g
       id="g10"><g
         id="g12"
         clip-path="url(#clipPath16)"><g
           id="g18"><g
             id="g20" /><g
             id="g36"><g
               clip-path="url(#clipPath24)"
               opacity="0.300003"
               id="g34"><g
                 transform="translate(541.124,14.9507)"
                 id="g28"><path
                   d="m 0,0 c 0,-7.98 -12.151,-14.451 -27.138,-14.451 h -303.068 c -14.986,0 -27.137,6.471 -27.137,14.451 v 148.122 c 0,7.981 12.151,14.45 27.137,14.45 H -27.138 C -12.151,162.572 0,156.103 0,148.122 Z"
                   style="fill:#2e3192;fill-opacity:1;fill-rule:nonzero;stroke:none"
                   id="path26" /></g><g
                 transform="translate(541.124,14.9507)"
                 id="g32"><path
                   d="m 0,0 c 0,-7.98 -12.151,-14.451 -27.138,-14.451 h -303.068 c -14.986,0 -27.137,6.471 -27.137,14.451 v 148.122 c 0,7.981 12.151,14.45 27.137,14.45 H -27.138 C -12.151,162.572 0,156.103 0,148.122 Z"
                   style="fill:none;stroke:#231f20;stroke-width:1;stroke-linecap:butt;stroke-linejoin:miter;stroke-miterlimit:10;stroke-dasharray:none;stroke-opacity:1"
                   id="path30" /></g></g></g></g><g
           id="g38"
           transform="translate(142.6162,88.5229)"><path
             d="M 0,0 C 0,-21.815 -21.714,-39.5 -48.5,-39.5 -75.286,-39.5 -97,-21.815 -97,0 -97,21.815 -75.286,39.5 -48.5,39.5 -21.714,39.5 0,21.815 0,0"
             style="fill:#ffffff;fill-opacity:1;fill-rule:nonzero;stroke:none"
             id="path40" /></g><g
           id="g42"
           transform="translate(142.6162,88.5229)"><path
             d="M 0,0 C 0,-21.815 -21.714,-39.5 -48.5,-39.5 -75.286,-39.5 -97,-21.815 -97,0 -97,21.815 -75.286,39.5 -48.5,39.5 -21.714,39.5 0,21.815 0,0 Z"
             style="fill:none;stroke:#231f20;stroke-width:2;stroke-linecap:butt;stroke-linejoin:miter;stroke-miterlimit:10;stroke-dasharray:none;stroke-opacity:1"
             id="path44" /></g><g
           id="g46"
           transform="translate(321.9453,88.5229)"><path
             d="M 0,0 C 0,-21.815 -21.715,-39.5 -48.5,-39.5 -75.286,-39.5 -97,-21.815 -97,0 -97,21.815 -75.286,39.5 -48.5,39.5 -21.715,39.5 0,21.815 0,0"
             style="fill:#ffffff;fill-opacity:1;fill-rule:nonzero;stroke:none"
             id="path48" /></g><g
           id="g50"
           transform="translate(321.9453,88.5229)"><path
             d="M 0,0 C 0,-21.815 -21.715,-39.5 -48.5,-39.5 -75.286,-39.5 -97,-21.815 -97,0 -97,21.815 -75.286,39.5 -48.5,39.5 -21.715,39.5 0,21.815 0,0 Z"
             style="fill:none;stroke:#231f20;stroke-width:2;stroke-linecap:butt;stroke-linejoin:miter;stroke-miterlimit:10;stroke-dasharray:none;stroke-opacity:1"
             id="path52" /></g><g
           id="g54"
           transform="translate(495.1162,88.5229)"><path
             d="M 0,0 C 0,-21.815 -21.715,-39.5 -48.5,-39.5 -75.285,-39.5 -97,-21.815 -97,0 -97,21.815 -75.285,39.5 -48.5,39.5 -21.715,39.5 0,21.815 0,0"
             style="fill:#ffffff;fill-opacity:1;fill-rule:nonzero;stroke:none"
             id="path56" /></g><g
           id="g58"
           transform="translate(495.1162,88.5229)"><path
             d="M 0,0 C 0,-21.815 -21.715,-39.5 -48.5,-39.5 -75.285,-39.5 -97,-21.815 -97,0 -97,21.815 -75.285,39.5 -48.5,39.5 -21.715,39.5 0,21.815 0,0 Z"
             style="fill:none;stroke:#231f20;stroke-width:2;stroke-linecap:butt;stroke-linejoin:miter;stroke-miterlimit:10;stroke-dasharray:none;stroke-opacity:1"
             id="path60" /></g><g
           id="g62"
           transform="translate(45.6162,90.0229)"><path
             d="M 0,0 H -36.666"
             style="fill:#ffffff;fill-opacity:1;fill-rule:nonzero;stroke:#231f20;stroke-width:3;stroke-linecap:butt;stroke-linejoin:miter;stroke-miterlimit:4;stroke-dasharray:none;stroke-opacity:1"
             id="path64" /></g><g
           id="g66"
           transform="translate(10.2832,48.0229)"><path
             d="M 0,0 V 81"
             style="fill:#ffffff;fill-opacity:1;fill-rule:nonzero;stroke:#231f20;stroke-width:3;stroke-linecap:butt;stroke-linejoin:miter;stroke-miterlimit:4;stroke-dasharray:none;stroke-opacity:1"
             id="path68" /></g><g
           id="g70"
           transform="translate(10.0605,59.0239)"><path
             d="M 0,0 -9,-9.001"
             style="fill:#ffffff;fill-opacity:1;fill-rule:nonzero;stroke:#231f20;stroke-width:3;stroke-linecap:butt;stroke-linejoin:miter;stroke-miterlimit:4;stroke-dasharray:none;stroke-opacity:1"
             id="path72" /></g><g
           id="g74"
           transform="translate(10.0605,68.0239)"><path
             d="M 0,0 -9,-9"
             style="fill:#ffffff;fill-opacity:1;fill-rule:nonzero;stroke:#231f20;stroke-width:3;stroke-linecap:butt;stroke-linejoin:miter;stroke-miterlimit:4;stroke-dasharray:none;stroke-opacity:1"
             id="path76" /></g><g
           id="g78"
           transform="translate(10.0605,77.0239)"><path
             d="M 0,0 -9,-9"
             style="fill:#ffffff;fill-opacity:1;fill-rule:nonzero;stroke:#231f20;stroke-width:3;stroke-linecap:butt;stroke-linejoin:miter;stroke-miterlimit:4;stroke-dasharray:none;stroke-opacity:1"
             id="path80" /></g><g
           id="g82"
           transform="translate(10.0605,86.0239)"><path
             d="M 0,0 -9,-9"
             style="fill:#ffffff;fill-opacity:1;fill-rule:nonzero;stroke:#231f20;stroke-width:3;stroke-linecap:butt;stroke-linejoin:miter;stroke-miterlimit:4;stroke-dasharray:none;stroke-opacity:1"
             id="path84" /></g><g
           id="g86"
           transform="translate(10.0605,95.0229)"><path
             d="M 0,0 -9,-8.999"
             style="fill:#ffffff;fill-opacity:1;fill-rule:nonzero;stroke:#231f20;stroke-width:3;stroke-linecap:butt;stroke-linejoin:miter;stroke-miterlimit:4;stroke-dasharray:none;stroke-opacity:1"
             id="path88" /></g><g
           id="g90"
           transform="translate(10.0605,104.0229)"><path
             d="M 0,0 -9,-9"
             style="fill:#ffffff;fill-opacity:1;fill-rule:nonzero;stroke:#231f20;stroke-width:3;stroke-linecap:butt;stroke-linejoin:miter;stroke-miterlimit:4;stroke-dasharray:none;stroke-opacity:1"
             id="path92" /></g><g
           id="g94"
           transform="translate(10.0605,113.0229)"><path
             d="M 0,0 -9,-9"
             style="fill:#ffffff;fill-opacity:1;fill-rule:nonzero;stroke:#231f20;stroke-width:3;stroke-linecap:butt;stroke-linejoin:miter;stroke-miterlimit:4;stroke-dasharray:none;stroke-opacity:1"
             id="path96" /></g><g
           id="g98"
           transform="translate(10.0605,122.0229)"><path
             d="M 0,0 -9,-9"
             style="fill:#ffffff;fill-opacity:1;fill-rule:nonzero;stroke:#231f20;stroke-width:3;stroke-linecap:butt;stroke-linejoin:miter;stroke-miterlimit:4;stroke-dasharray:none;stroke-opacity:1"
             id="path100" /></g><g
           id="g102"
           transform="translate(142.6162,88.5229)"><path
             d="M 0,0 H 82.329"
             style="fill:#ffffff;fill-opacity:1;fill-rule:nonzero;stroke:#231f20;stroke-width:2;stroke-linecap:butt;stroke-linejoin:miter;stroke-miterlimit:10;stroke-dasharray:none;stroke-opacity:1"
             id="path104" /></g><g
           id="g106"
           transform="translate(321.9453,88.5229)"><path
             d="M 0,0 H 76.171"
             style="fill:#ffffff;fill-opacity:1;fill-rule:nonzero;stroke:#231f20;stroke-width:2;stroke-linecap:butt;stroke-linejoin:miter;stroke-miterlimit:10;stroke-dasharray:none;stroke-opacity:1"
             id="path108" /></g></g></g><text
       transform="matrix(1,0,0,-1,76.6162,77.0239)"
       style="font-variant:normal;font-weight:normal;font-stretch:normal;font-size:48px;font-family:'Myriad Pro';-inkscape-font-specification:MyriadPro-Regular;writing-mode:lr-tb;fill:#231f20;fill-opacity:1;fill-rule:nonzero;stroke:none"
       id="text112"><tspan
         x="0"
         y="0"
         id="tspan110">S</tspan></text><text
       transform="matrix(1,0,0,-1,100.2803,61.04)"
       style="font-variant:normal;font-weight:normal;font-stretch:normal;font-size:27.984px;font-family:'Myriad Pro';-inkscape-font-specification:MyriadPro-Regular;writing-mode:lr-tb;fill:#231f20;fill-opacity:1;fill-rule:nonzero;stroke:none"
       id="text116"><tspan
         x="0"
         y="0"
         id="tspan114">0</tspan></text><text
       transform="matrix(1,0,0,-1,249.6162,77.0239)"
       style="font-variant:normal;font-weight:normal;font-stretch:normal;font-size:48px;font-family:'Myriad Pro';-inkscape-font-specification:MyriadPro-Regular;writing-mode:lr-tb;fill:#231f20;fill-opacity:1;fill-rule:nonzero;stroke:none"
       id="text120"><tspan
         x="0"
         y="0"
         id="tspan118">S</tspan></text><text
       transform="matrix(1,0,0,-1,273.2803,61.04)"
       style="font-variant:normal;font-weight:normal;font-stretch:normal;font-size:27.984px;font-family:'Myriad Pro';-inkscape-font-specification:MyriadPro-Regular;writing-mode:lr-tb;fill:#231f20;fill-opacity:1;fill-rule:nonzero;stroke:none"
       id="text124"><tspan
         x="0"
         y="0"
         id="tspan122">2</tspan></text><text
       transform="matrix(1,0,0,-1,427.6162,77.0239)"
       style="font-variant:normal;font-weight:normal;font-stretch:normal;font-size:48px;font-family:'Myriad Pro';-inkscape-font-specification:MyriadPro-Regular;writing-mode:lr-tb;fill:#231f20;fill-opacity:1;fill-rule:nonzero;stroke:none"
       id="text128"><tspan
         x="0"
         y="0"
         id="tspan126">S</tspan></text><text
       transform="matrix(1,0,0,-1,451.2803,61.04)"
       style="font-variant:normal;font-weight:normal;font-stretch:normal;font-size:27.984px;font-family:'Myriad Pro';-inkscape-font-specification:MyriadPro-Regular;writing-mode:lr-tb;fill:#231f20;fill-opacity:1;fill-rule:nonzero;stroke:none"
       id="text132"><tspan
         x="0"
         y="0"
         id="tspan130">1</tspan></text><g
       id="g134"><g
         id="g136"
         clip-path="url(#clipPath140)"><text
           transform="matrix(1,0,0,-1,148.5493,168.0234)"
           style="font-variant:normal;font-weight:normal;font-stretch:normal;font-size:24px;font-family:'Myriad Pro';-inkscape-font-specification:MyriadPro-Regular;writing-mode:lr-tb;fill:#231f20;fill-opacity:1;fill-rule:nonzero;stroke:none"
           id="text144"><tspan
             x="0 11.832 25.488001 38.807999 50.832001 58.439999"
             y="0"
             sodipodi:role="line"
             id="tspan142">Sphère</tspan></text></g></g><text
       transform="matrix(1,0,0,-1,161.6772,139.2236)"
       style="font-variant:normal;font-weight:normal;font-stretch:normal;font-size:24px;font-family:'Myriad Pro';-inkscape-font-specification:MyriadPro-Regular;writing-mode:lr-tb;fill:#231f20;fill-opacity:1;fill-rule:nonzero;stroke:none"
       id="text148"><tspan
         x="0 13.656 19.32 30.888"
         y="0"
         sodipodi:role="line"
         id="tspan146">plan</tspan></text><g
       id="g150"><g
         id="g152"
         clip-path="url(#clipPath156)"><text
           transform="matrix(1,0,0,-1,339.0249,168.0234)"
           style="font-variant:normal;font-weight:normal;font-stretch:normal;font-size:24px;font-family:'Myriad Pro';-inkscape-font-specification:MyriadPro-Regular;writing-mode:lr-tb;fill:#231f20;fill-opacity:1;fill-rule:nonzero;stroke:none"
           id="text160"><tspan
             x="0 12.384 18 29.304001 42.48 50.424"
             y="0"
             sodipodi:role="line"
             id="tspan158">Pivot </tspan></text></g></g><text
       transform="matrix(1,0,0,-1,340.5015,139.2236)"
       style="font-variant:normal;font-weight:normal;font-stretch:normal;font-size:24px;font-family:'Myriad Pro';-inkscape-font-specification:MyriadPro-Regular;writing-mode:lr-tb;fill:#231f20;fill-opacity:1;fill-rule:nonzero;stroke:none"
       id="text164"><tspan
         x="0 13.68 18.216 29.784 40.538399"
         y="0"
         sodipodi:role="line"
         id="tspan162">d’axe</tspan></text><g
       id="g166"><g
         id="g168"
         clip-path="url(#clipPath172)"><g
           id="g174"><g
             id="g176" /><g
             id="g192"><g
               clip-path="url(#clipPath180)"
               opacity="0.300003"
               id="g190"><g
                 transform="translate(529.6162,28.5229)"
                 id="g184"><path
                   d="m 0,0 c 0,-6.627 -5.373,-12 -12,-12 h -134.017 c -6.627,0 -12,5.373 -12,12 v 123 c 0,6.627 5.373,12 12,12 H -12 c 6.627,0 12,-5.373 12,-12 z"
                   style="fill:#ed1c24;fill-opacity:1;fill-rule:nonzero;stroke:none"
                   id="path182" /></g><g
                 transform="translate(529.6162,28.5229)"
                 id="g188"><path
                   d="m 0,0 c 0,-6.627 -5.373,-12 -12,-12 h -134.017 c -6.627,0 -12,5.373 -12,12 v 123 c 0,6.627 5.373,12 12,12 H -12 c 6.627,0 12,-5.373 12,-12 z"
                   style="fill:none;stroke:#231f20;stroke-width:1;stroke-linecap:butt;stroke-linejoin:miter;stroke-miterlimit:10;stroke-dasharray:none;stroke-opacity:1"
                   id="path186" /></g></g></g></g></g></g><text
       transform="matrix(1,0,0,-1,496.5566,27.0229)"
       style="font-variant:normal;font-weight:normal;font-stretch:normal;font-size:24px;font-family:'Myriad Pro';-inkscape-font-specification:MyriadPro-Regular;writing-mode:lr-tb;fill:#231f20;fill-opacity:1;fill-rule:nonzero;stroke:none"
       id="text198"><tspan
         x="0 11.808"
         y="0"
         sodipodi:role="line"
         id="tspan194">E1</tspan><tspan
         x="-297 -285.19199"
         y="13.008"
         sodipodi:role="line"
         id="tspan196">E2</tspan></text><g
       id="g200"><g
         id="g202"
         clip-path="url(#clipPath206)"><g
           id="g208"
           transform="translate(152.7153,104.0195)"><path
             d="m 0,0 c 0,0.069 0,0.116 -0.395,0.51 -2.897,2.92 -3.638,7.302 -3.638,10.849 0,4.035 0.88,8.068 3.732,10.966 C 0,22.604 0,22.649 0,22.719 c 0,0.162 -0.093,0.232 -0.232,0.232 -0.232,0 -2.318,-1.576 -3.685,-4.52 -1.184,-2.551 -1.461,-5.124 -1.461,-7.072 0,-1.808 0.254,-4.613 1.53,-7.233 1.391,-2.851 3.384,-4.358 3.616,-4.358 C -0.093,-0.232 0,-0.163 0,0"
             style="fill:#231f20;fill-opacity:1;fill-rule:nonzero;stroke:none"
             id="path210" /></g><g
           id="g212"
           transform="translate(162.749,123.6323)"><path
             d="m 0,0 c 0.208,0.834 0.278,1.066 2.11,1.066 0.557,0 0.743,0 0.743,0.441 0,0.278 -0.256,0.278 -0.349,0.278 -0.672,0 -2.388,-0.07 -3.06,-0.07 -0.695,0 -2.388,0.07 -3.083,0.07 -0.163,0 -0.464,0 -0.464,-0.464 0,-0.255 0.209,-0.255 0.649,-0.255 0.974,0 1.6,0 1.6,-0.44 0,-0.116 0,-0.162 -0.046,-0.371 l -3.13,-12.496 c -0.209,-0.858 -0.279,-1.089 -2.11,-1.089 -0.534,0 -0.742,0 -0.742,-0.464 0,-0.255 0.278,-0.255 0.348,-0.255 0.672,0 2.365,0.07 3.036,0.07 0.696,0 2.412,-0.07 3.107,-0.07 0.186,0 0.464,0 0.464,0.441 0,0.278 -0.186,0.278 -0.696,0.278 -0.416,0 -0.532,0 -0.996,0.046 -0.487,0.046 -0.58,0.138 -0.58,0.394 0,0.185 0.046,0.371 0.093,0.533 L 0,0"
             style="fill:#231f20;fill-opacity:1;fill-rule:nonzero;stroke:none"
             id="path214" /></g><g
           id="g216"
           transform="translate(170.7271,109.6064)"><path
             d="m 0,0 c 0,1.53 -0.58,2.434 -1.483,2.434 -0.766,0 -1.229,-0.579 -1.229,-1.229 0,-0.625 0.463,-1.228 1.229,-1.228 0.278,0 0.58,0.093 0.811,0.301 0.069,0.046 0.092,0.07 0.115,0.07 0.024,0 0.047,-0.024 0.047,-0.348 0,-1.715 -0.811,-3.107 -1.577,-3.872 -0.255,-0.254 -0.255,-0.301 -0.255,-0.37 0,-0.163 0.116,-0.256 0.232,-0.256 C -1.855,-4.498 0,-2.712 0,0"
             style="fill:#231f20;fill-opacity:1;fill-rule:nonzero;stroke:none"
             id="path218" /></g><g
           id="g220"
           transform="translate(191.627,124.8564)"><path
             d="M 0,0 C 0.394,0 0.812,0 0.812,0.463 0.812,0.927 0.394,0.927 0,0.927 h -12.542 c -0.395,0 -0.812,0 -0.812,-0.464 C -13.354,0 -12.937,0 -12.542,0 H 0"
             style="fill:#231f20;fill-opacity:1;fill-rule:nonzero;stroke:none"
             id="path222" /></g><g
           id="g224"
           transform="translate(195.6846,124.8564)"><path
             d="m 0,0 c -1.276,-0.974 -1.901,-1.924 -2.087,-2.226 -1.043,-1.6 -1.228,-3.06 -1.228,-3.083 0,-0.279 0.278,-0.279 0.462,-0.279 0.395,0 0.418,0.047 0.511,0.464 0.533,2.271 1.901,4.22 4.521,5.286 0.278,0.092 0.347,0.139 0.347,0.301 0,0.162 -0.139,0.232 -0.185,0.255 -1.02,0.395 -3.824,1.553 -4.706,5.449 -0.07,0.277 -0.093,0.347 -0.488,0.347 -0.184,0 -0.462,0 -0.462,-0.278 0,-0.046 0.209,-1.506 1.182,-3.059 C -1.669,2.48 -0.998,1.669 0,0.927 h -17.225 c -0.418,0 -0.835,0 -0.835,-0.464 C -18.06,0 -17.643,0 -17.225,0 H 0"
             style="fill:#231f20;fill-opacity:1;fill-rule:nonzero;stroke:none"
             id="path226" /></g><g
           id="g228"
           transform="translate(193.1035,118.416)"><path
             d="M 0,0 C 0.093,0.325 0.093,0.371 0.093,0.533 0.093,0.951 -0.232,1.16 -0.58,1.16 -0.812,1.16 -1.182,1.021 -1.391,0.672 -1.437,0.557 -1.623,-0.163 -1.716,-0.58 -1.878,-1.183 -2.041,-1.809 -2.18,-2.434 l -1.043,-4.172 c -0.092,-0.349 -1.089,-1.972 -2.619,-1.972 -1.183,0 -1.438,1.02 -1.438,1.878 0,1.067 0.394,2.504 1.183,4.544 0.37,0.95 0.463,1.205 0.463,1.669 0,1.044 -0.741,1.901 -1.901,1.901 -2.202,0 -3.06,-3.361 -3.06,-3.57 0,-0.232 0.231,-0.232 0.278,-0.232 0.232,0 0.255,0.047 0.371,0.418 0.626,2.178 1.553,2.874 2.342,2.874 0.186,0 0.579,0 0.579,-0.742 0,-0.579 -0.232,-1.182 -0.393,-1.623 -0.928,-2.457 -1.346,-3.778 -1.346,-4.868 0,-2.063 1.461,-2.759 2.829,-2.759 0.904,0 1.692,0.394 2.341,1.043 -0.301,-1.205 -0.58,-2.341 -1.507,-3.569 -0.603,-0.79 -1.483,-1.461 -2.549,-1.461 -0.325,0 -1.368,0.069 -1.762,0.973 0.37,0 0.671,0 0.996,0.278 0.232,0.21 0.464,0.511 0.464,0.951 0,0.719 -0.626,0.812 -0.859,0.812 -0.532,0 -1.297,-0.372 -1.297,-1.507 0,-1.159 1.02,-2.017 2.458,-2.017 2.387,0 4.775,2.109 5.424,4.729 L 0,0"
             style="fill:#231f20;fill-opacity:1;fill-rule:nonzero;stroke:none"
             id="path230" /></g><g
           id="g232"
           transform="translate(207.8071,111.2583)"><path
             d="m 0,0 c 0,1.779 -0.211,3.058 -0.954,4.19 -0.503,0.744 -1.505,1.392 -2.799,1.392 -3.754,0 -3.754,-4.417 -3.754,-5.582 0,-1.165 0,-5.485 3.754,-5.485 C 0,-5.485 0,-1.165 0,0 m -3.753,-5.032 c -0.745,0 -1.732,0.437 -2.056,1.764 -0.226,0.955 -0.226,2.281 -0.226,3.478 0,1.181 0,2.411 0.243,3.301 0.339,1.278 1.375,1.618 2.039,1.618 0.874,0 1.714,-0.533 2.006,-1.473 0.258,-0.873 0.274,-2.038 0.274,-3.446 0,-1.197 0,-2.395 -0.21,-3.414 -0.323,-1.472 -1.423,-1.828 -2.07,-1.828"
             style="fill:#231f20;fill-opacity:1;fill-rule:nonzero;stroke:none"
             id="path234" /></g><g
           id="g236"
           transform="translate(216.5518,115.3789)"><path
             d="m 0,0 c 0,1.809 -0.255,4.613 -1.53,7.233 -1.391,2.852 -3.385,4.359 -3.617,4.359 -0.139,0 -0.232,-0.093 -0.232,-0.232 0,-0.07 0,-0.116 0.441,-0.534 C -2.667,8.531 -1.344,4.845 -1.344,0 c 0,-3.964 -0.859,-8.045 -3.733,-10.966 -0.302,-0.277 -0.302,-0.324 -0.302,-0.393 0,-0.14 0.093,-0.232 0.232,-0.232 0.232,0 2.319,1.576 3.687,4.52 C -0.279,-4.521 0,-1.947 0,0"
             style="fill:#231f20;fill-opacity:1;fill-rule:nonzero;stroke:none"
             id="path238" /></g><g
           id="g240"><g
             id="g242" /><g
             id="g250"><g
               clip-path="url(#clipPath246)"
               opacity="0"
               id="g248" /></g></g></g></g><g
       id="g252"><g
         id="g254"
         clip-path="url(#clipPath258)"><g
           id="g260"
           transform="translate(331.5742,104.0195)"><path
             d="m 0,0 c 0,0.069 0,0.116 -0.395,0.509 -2.897,2.921 -3.639,7.303 -3.639,10.85 0,4.035 0.881,8.068 3.732,10.966 C 0,22.603 0,22.649 0,22.719 c 0,0.162 -0.093,0.232 -0.231,0.232 -0.233,0 -2.319,-1.576 -3.686,-4.52 -1.184,-2.552 -1.461,-5.124 -1.461,-7.072 0,-1.809 0.254,-4.613 1.53,-7.233 1.391,-2.851 3.384,-4.358 3.617,-4.358 C -0.093,-0.232 0,-0.163 0,0"
             style="fill:#231f20;fill-opacity:1;fill-rule:nonzero;stroke:none"
             id="path262" /></g><g
           id="g264"
           transform="translate(337.0225,112.2485)"><path
             d="m 0,0 c -0.926,-1.553 -1.83,-1.878 -2.852,-1.946 -0.277,-0.024 -0.486,-0.024 -0.486,-0.465 0,-0.139 0.115,-0.255 0.301,-0.255 0.627,0 1.346,0.07 1.994,0.07 0.766,0 1.577,-0.07 2.319,-0.07 0.138,0 0.44,0 0.44,0.441 0,0.255 -0.209,0.279 -0.371,0.279 -0.533,0.046 -1.089,0.231 -1.089,0.811 0,0.278 0.139,0.533 0.324,0.857 L 2.343,2.69 h 5.818 c 0.047,-0.487 0.371,-3.64 0.371,-3.872 0,-0.696 -1.205,-0.764 -1.669,-0.764 -0.325,0 -0.556,0 -0.556,-0.465 0,-0.255 0.278,-0.255 0.324,-0.255 0.95,0 1.948,0.07 2.897,0.07 0.58,0 2.041,-0.07 2.621,-0.07 0.138,0 0.416,0 0.416,0.464 0,0.256 -0.231,0.256 -0.532,0.256 -1.437,0 -1.437,0.161 -1.507,0.834 L 9.111,13.377 C 9.064,13.84 9.064,13.934 8.672,13.934 8.3,13.934 8.208,13.771 8.068,13.54 Z m 2.783,3.409 4.568,7.65 0.741,-7.65 z"
             style="fill:#231f20;fill-opacity:1;fill-rule:nonzero;stroke:none"
             id="path266" /></g><g
           id="g268"
           transform="translate(354.9443,109.606)"><path
             d="m 0,0 c 0,1.53 -0.58,2.434 -1.484,2.434 -0.766,0 -1.229,-0.579 -1.229,-1.228 0,-0.626 0.463,-1.229 1.229,-1.229 0.278,0 0.58,0.093 0.811,0.302 0.069,0.046 0.093,0.069 0.116,0.069 0.023,0 0.046,-0.023 0.046,-0.348 0,-1.715 -0.81,-3.106 -1.576,-3.872 -0.256,-0.254 -0.256,-0.3 -0.256,-0.37 0,-0.162 0.116,-0.255 0.233,-0.255 C -1.855,-4.497 0,-2.712 0,0"
             style="fill:#231f20;fill-opacity:1;fill-rule:nonzero;stroke:none"
             id="path270" /></g><g
           id="g272"
           transform="translate(375.7793,124.8564)"><path
             d="M 0,0 C 0.394,0 0.812,0 0.812,0.463 0.812,0.927 0.394,0.927 0,0.927 h -12.542 c -0.395,0 -0.812,0 -0.812,-0.464 C -13.354,0 -12.937,0 -12.542,0 H 0"
             style="fill:#231f20;fill-opacity:1;fill-rule:nonzero;stroke:none"
             id="path274" /></g><g
           id="g276"
           transform="translate(379.8369,124.8564)"><path
             d="m 0,0 c -1.275,-0.974 -1.901,-1.925 -2.087,-2.226 -1.043,-1.6 -1.228,-3.06 -1.228,-3.083 0,-0.279 0.278,-0.279 0.462,-0.279 0.395,0 0.417,0.047 0.51,0.464 0.534,2.271 1.902,4.219 4.522,5.286 0.278,0.092 0.347,0.139 0.347,0.301 0,0.162 -0.138,0.232 -0.185,0.255 -1.02,0.395 -3.824,1.553 -4.706,5.449 -0.071,0.277 -0.093,0.347 -0.488,0.347 -0.184,0 -0.462,0 -0.462,-0.278 0,-0.046 0.209,-1.506 1.182,-3.06 C -1.669,2.48 -0.998,1.668 0,0.927 h -17.226 c -0.418,0 -0.835,0 -0.835,-0.464 C -18.061,0 -17.644,0 -17.226,0 H 0"
             style="fill:#231f20;fill-opacity:1;fill-rule:nonzero;stroke:none"
             id="path278" /></g><g
           id="g280"
           transform="translate(369.2656,111.5073)"><path
             d="m 0,0 c 1.252,1.345 1.924,1.925 2.759,2.643 0,0.023 1.436,1.252 2.272,2.087 2.201,2.155 2.712,3.269 2.712,3.361 0,0.231 -0.209,0.231 -0.256,0.231 C 7.325,8.322 7.256,8.276 7.14,8.068 6.445,6.955 5.958,6.584 5.402,6.584 c -0.557,0 -0.836,0.347 -1.183,0.742 -0.44,0.533 -0.834,0.996 -1.6,0.996 -1.739,0 -2.805,-2.155 -2.805,-2.642 0,-0.116 0.07,-0.256 0.279,-0.256 0.208,0 0.255,0.117 0.302,0.256 0.439,1.066 1.785,1.089 1.968,1.089 0.488,0 0.929,-0.161 1.462,-0.347 C 4.752,6.074 5.008,6.074 5.609,6.074 4.775,5.077 2.828,3.409 2.387,3.037 L 0.301,1.089 c -1.576,-1.553 -2.388,-2.874 -2.388,-3.036 0,-0.232 0.233,-0.232 0.278,-0.232 0.186,0 0.232,0.046 0.372,0.301 0.533,0.811 1.227,1.438 1.97,1.438 0.532,0 0.765,-0.209 1.345,-0.881 0.394,-0.488 0.811,-0.858 1.483,-0.858 2.295,0 3.641,2.944 3.641,3.57 0,0.116 -0.093,0.232 -0.278,0.232 -0.21,0 -0.256,-0.139 -0.326,-0.302 -0.533,-1.507 -2.017,-1.947 -2.781,-1.947 -0.464,0 -0.882,0.139 -1.368,0.301 C 1.46,-0.023 1.112,0.07 0.626,0.07 0.58,0.07 0.208,0.07 0,0"
             style="fill:#231f20;fill-opacity:1;fill-rule:nonzero;stroke:none"
             id="path282" /></g><g
           id="g284"
           transform="translate(392.0234,111.2583)"><path
             d="m 0,0 c 0,1.779 -0.21,3.058 -0.953,4.189 -0.503,0.745 -1.505,1.393 -2.8,1.393 -3.754,0 -3.754,-4.417 -3.754,-5.582 0,-1.165 0,-5.485 3.754,-5.485 C 0,-5.485 0,-1.165 0,0 m -3.753,-5.032 c -0.744,0 -1.731,0.436 -2.056,1.764 -0.225,0.955 -0.225,2.281 -0.225,3.478 0,1.181 0,2.411 0.242,3.301 0.339,1.278 1.376,1.618 2.039,1.618 0.873,0 1.715,-0.533 2.007,-1.473 0.258,-0.873 0.274,-2.038 0.274,-3.446 0,-1.197 0,-2.395 -0.21,-3.414 -0.324,-1.472 -1.424,-1.828 -2.071,-1.828"
             style="fill:#231f20;fill-opacity:1;fill-rule:nonzero;stroke:none"
             id="path286" /></g><g
           id="g288"
           transform="translate(400.7686,115.3784)"><path
             d="m 0,0 c 0,1.809 -0.256,4.613 -1.53,7.234 -1.391,2.851 -3.385,4.358 -3.616,4.358 -0.14,0 -0.233,-0.092 -0.233,-0.232 0,-0.069 0,-0.116 0.441,-0.534 C -2.667,8.532 -1.344,4.845 -1.344,0 c 0,-3.964 -0.859,-8.045 -3.733,-10.965 -0.302,-0.278 -0.302,-0.325 -0.302,-0.394 0,-0.139 0.093,-0.232 0.233,-0.232 0.231,0 2.318,1.577 3.686,4.521 C -0.279,-4.521 0,-1.946 0,0"
             style="fill:#231f20;fill-opacity:1;fill-rule:nonzero;stroke:none"
             id="path290" /></g><g
           id="g292"><g
             id="g294" /><g
             id="g302"><g
               clip-path="url(#clipPath298)"
               opacity="0"
               id="g300" /></g></g></g></g></g></svg>
